<?xml version="1.0" standalone="no"?>
<!DOCTYPE svg PUBLIC "-//W3C//DTD SVG 20010904//EN"
 "http://www.w3.org/TR/2001/REC-SVG-20010904/DTD/svg10.dtd">
<svg version="1.0" xmlns="http://www.w3.org/2000/svg"
 width="512.000000pt" height="512.000000pt" viewBox="0 0 512.000000 512.000000"
 preserveAspectRatio="xMidYMid meet">

<g transform="translate(0.000000,512.000000) scale(0.100000,-0.100000)"
fill="#FFFFFF" stroke="none">
<path d="M2450 4666 c-87 -36 -252 -121 -327 -167 -207 -129 -443 -339 -583
-517 -45 -58 -69 -81 -80 -77 -80 32 -481 111 -682 136 -191 23 -273 -2 -325
-100 l-23 -44 0 -743 c0 -788 3 -862 50 -1064 102 -436 357 -859 692 -1145
395 -338 874 -515 1392 -515 242 0 436 31 663 105 789 259 1352 950 1453 1785
6 51 10 383 10 831 l0 746 -23 44 c-34 64 -93 102 -166 107 -107 8 -440 -45
-713 -114 -75 -19 -139 -34 -141 -34 -2 0 -32 36 -66 81 -186 239 -466 467
-748 609 -219 109 -276 121 -383 76z m180 -451 c177 -89 340 -208 483 -353
l99 -99 -124 -49 c-68 -27 -215 -95 -327 -151 l-204 -102 -141 74 c-128 67
-296 144 -449 205 l-59 23 84 84 c147 150 286 254 468 352 52 28 96 51 98 51
1 0 34 -16 72 -35z m-1590 -650 c343 -67 706 -184 1008 -326 l103 -48 -103
-83 c-128 -102 -359 -332 -460 -458 -198 -248 -352 -508 -465 -784 -25 -61
-48 -115 -52 -119 -9 -9 -87 155 -124 258 -38 106 -75 286 -87 415 -5 63 -10
355 -10 648 l0 534 28 -6 c15 -3 88 -17 162 -31z m3230 -492 c0 -547 -7 -700
-41 -861 -74 -360 -284 -716 -562 -949 -462 -388 -1073 -509 -1635 -324 -211
69 -435 195 -579 326 l-62 55 19 69 c139 500 440 975 840 1326 426 373 956
643 1560 794 150 37 399 88 443 90 16 1 17 -30 17 -526z"/>
</g>
</svg>
